<svg width="31" height="30" viewBox="0 0 31 30" fill="none" xmlns="http://www.w3.org/2000/svg">
<g clip-path="url(#clip0_38_60)">
<path d="M28.4167 13.8498V14.9998C28.4151 17.6954 27.5131 20.3182 25.8454 22.4771C24.1776 24.6361 21.8334 26.2154 19.1623 26.9797C16.4912 27.744 13.6364 27.6522 11.0237 26.7181C8.4109 25.7839 6.18016 24.0575 4.66414 21.7962C3.14812 19.5349 2.42804 16.8599 2.61131 14.1702C2.79458 11.4805 3.87137 8.92024 5.68109 6.87117C7.49081 4.8221 9.93649 3.39406 12.6534 2.80001C15.3703 2.20597 18.2128 2.47775 20.7571 3.57483M28.4167 4.99983L15.5 17.5123L11.625 13.7623" stroke="#00CF15" stroke-width="4" stroke-linecap="round" stroke-linejoin="round"/>
</g>
<defs>
<clipPath id="clip0_38_60">
<rect width="31" height="30" fill="white"/>
</clipPath>
</defs>
</svg>
